Coordinates
version=1
nRows=19
nColumns=36
inDegrees=yes

Units are S.I. units (second, meters, Newtons, ...)
If the header above contains a line with 'inDegrees', this indicates whether rotational values are in degrees (yes) or radians (no).

endheader
time	pelvis_tilt	pelvis_list	pelvis_rotation	pelvis_tx	pelvis_ty	pelvis_tz	hip_flexion_r	hip_adduction_r	hip_rotation_r	knee_angle_r	knee_angle_r_beta	ankle_angle_r	subtalar_angle_r	mtp_angle_r	hip_flexion_l	hip_adduction_l	hip_rotation_l	knee_angle_l	knee_angle_l_beta	ankle_angle_l	subtalar_angle_l	mtp_angle_l	lumbar_extension	lumbar_bending	lumbar_rotation	arm_flex_r	arm_add_r	arm_rot_r	elbow_flex_r	pro_sup_r	arm_flex_l	arm_add_l	arm_rot_l	elbow_flex_l	pro_sup_l
     14.93333330	     -0.03845785	      2.75854771	     -2.04489869	      1.01768875	      0.92812060	      0.72530807	     11.87714421	     -0.49305581	      6.99902155	     65.58099801	      1.14460434	     -6.14443317	    -13.22597137	     -7.49999987	     13.00122243	      3.73260152	      2.40275222	     21.70883288	      0.37889061	      5.84225950	     -8.63062390	     -7.49999987	    -15.05580373	     -2.79980393	      7.67755652	      3.77632606	    -15.65322393	      7.83426446	     20.97557912	     72.49304566	      5.19009669	    -11.45595370	      3.79742006	     17.43625118	     75.00669243
     14.95000000	      0.18745901	      2.01014081	     -2.25772900	      1.01710469	      0.93315848	      0.72518601	     14.35480259	      0.25623634	      6.60397673	     64.67904929	      1.12886237	     -3.37012442	    -14.23355796	     -7.49999987	     10.48265110	      2.98201767	      2.39486480	     20.13785907	      0.35147194	      6.40018765	     -8.22189055	     -7.49999987	    -15.66907582	     -1.87701564	      6.77972601	      3.55913778	    -16.02538092	      6.93616725	     20.17457235	     74.93859713	      6.58577914	    -12.16256013	      5.29034101	     19.29549189	     77.68148673
     14.96666670	      0.31430161	      1.32638785	     -2.45745542	      1.01363775	      0.93471170	      0.72366650	     16.71754254	      0.86378280	      6.38673103	     62.61972791	      1.09292043	     -0.53864826	    -15.40596616	     -7.49999987	      8.12569813	      2.37034737	      2.56336225	     18.61918535	      0.32496609	      6.53957751	     -8.45703921	     -7.49999987	    -16.27266576	     -0.97041711	      5.97650311	      2.87912980	    -16.48953513	      6.14876247	     20.13203492	     73.55214546	      7.69135065	    -12.59920621	      4.88270408	     21.76501267	     76.26283964
     14.98333330	      0.32769822	      0.62629503	     -2.58576418	      1.01002685	      0.93410533	      0.72152369	     18.89743614	      1.34896736	      6.08322784	     59.63549420	      1.04083572	      2.31081601	    -15.04721580	     -7.49999987	      6.07992652	      1.66806915	      2.23790039	     17.38365596	      0.30340203	      7.28743266	     -7.51236011	     -7.49999987	    -16.65204779	      0.04406819	      5.02746534	      2.31293492	    -16.85154063	      4.92499570	     19.46075006	     73.39330602	      8.60667834	    -13.15936579	      5.17029037	     24.17857714	     76.82274967
     15.00000000	     -0.14933846	      0.43277104	     -2.89870561	      1.00557588	      0.93290889	      0.72020379	     21.49191278	      1.39895919	      6.12508403	     56.22025097	      0.98122849	      3.45833259	    -15.47891061	     -7.49999987	      4.76583771	      1.53470470	      2.08364955	     16.31947405	      0.28482855	      7.74951401	     -7.64324259	     -7.49999987	    -16.42290696	      0.44340821	      4.08543226	      1.57814034	    -17.36694671	      4.70916869	     19.32113583	     73.26705760	      9.89598192	    -13.62390052	      5.07333268	     25.13493580	     76.76967255
     15.01666670	      0.13048811	     -0.39485450	     -2.79665464	      0.99971602	      0.93344247	      0.71847415	     22.58640774	      1.67954690	      5.24908927	     51.47743469	      0.89845073	      4.45558105	    -14.20572467	     -7.49999987	      2.69738411	      0.75458180	      2.01373270	     15.18604193	      0.26504643	      8.25099436	     -6.97718679	     -7.49999987	    -17.64411017	      1.72850483	      3.75341479	      0.20276957	    -17.65134781	     -2.07451590	     20.26619890	     74.98848596	     10.30518343	    -13.92659075	      3.49877905	     30.27640808	     82.41566098
     15.03333330	      0.02152747	     -0.68869349	     -2.90999553	      0.99314740	      0.93222611	      0.71751738	     24.03473409	      1.52282353	      4.84365717	     46.32533015	      0.80852954	      4.55510519	    -13.30026862	     -7.49999987	      1.35274654	      0.51410984	      1.88046606	     14.38716865	      0.25110346	      8.75687386	     -6.93341570	     -7.49999987	    -18.38448365	      2.30944973	      3.03489093	     -0.31840775	    -18.30162683	     -3.17529711	     20.41537181	     73.54717898	     11.20777037	    -14.47913849	      3.39955018	     33.32844945	     80.83058482
     15.05000000	     -0.18140398	     -0.79552493	     -3.13294717	      0.98773508	      0.92988917	      0.71695448	     25.36188293	      1.26136021	      4.80168063	     40.53703144	      0.70750467	      4.02748923	    -12.22313246	     -7.49999987	      0.30055335	      0.44439265	      1.65026901	     13.84992954	      0.24172687	      9.26133270	     -7.07371716	     -7.49999987	    -19.20976542	      2.61963574	      2.48989707	     -0.68216183	    -18.96783384	     -4.35492658	     20.82694075	     72.01752776	     12.27818250	    -15.03293587	      3.39167333	     36.37094849	     79.11254604
     15.06666670	     -0.53162034	     -0.76347952	     -3.12385011	      0.98412440	      0.92783456	      0.71674696	     26.60807908	      0.74900026	      4.62233117	     34.36977085	      0.59986566	      3.60347003	    -10.16437357	     -7.49999987	     -0.47253472	      0.54973179	      1.92468441	     13.56982550	      0.23683813	      9.92029364	     -7.47158898	     -7.49999987	    -19.70978482	      2.75693710	      1.71715332	     -0.54711670	    -19.03936607	     -8.26162982	     20.39252929	     72.95336664	     13.40232551	    -15.73353892	      3.68409131	     39.22471898	     82.69167511
     15.08333330	     -0.93611220	     -0.67280490	     -2.91287019	      0.98241879	      0.92682617	      0.71758128	     27.62951577	      0.09949105	      4.35556620	     27.97935931	      0.48833194	      3.38624436	     -7.44943570	     -7.49999987	     -1.37020392	      0.85187837	      3.03823697	     13.14119912	      0.22935719	     10.31157891	     -8.94116940	     -7.49999987	    -19.84189108	      2.84349738	      0.73182833	     -0.43063402	    -19.37082246	     -8.83317515	     20.20423013	     73.04235108	     14.77879640	    -16.14454251	      4.09618677	     40.49991421	     83.10400651
     15.10000000	     -1.08130964	     -0.50065017	     -2.82248308	      0.98313475	      0.92447069	      0.71973777	     28.21704122	     -0.46218272	      4.50785149	     21.80453654	      0.38056095	      3.51817898	     -4.79852930	     -7.49999987	     -2.82996639	      1.18370516	      3.05243959	     12.55746128	      0.21916904	     11.75782421	     -8.53393718	     -7.49999987	    -19.96703742	      2.67158522	     -0.11871342	     -0.45778650	    -19.46633992	     -9.39170749	     20.19828764	     73.77985517	     15.69079715	    -16.64474626	      4.48923978	     41.65118892	     84.37786750
     15.11666670	     -1.25620604	     -0.46868797	     -2.31915143	      0.98577394	      0.91853513	      0.72068983	     28.75886621	     -1.01203124	      4.48263328	     16.32995102	      0.28501141	      4.57241160	     -2.24793765	     -7.49999987	     -4.31392893	      1.34463885	      3.53222318	     12.14037326	      0.21188949	     13.37542991	     -8.24681503	     -7.49999987	    -19.68670538	      2.80499262	     -1.48470520	     -0.55475446	    -19.30050170	    -10.38745095	     20.17661186	     74.70665574	     15.89104803	    -16.98004728	      4.37868679	     42.23399605	     85.09083013
     15.13333330	     -1.55731410	     -0.58197758	     -1.71476535	      0.98827158	      0.91087280	      0.72141977	     29.44878923	     -1.43391237	      4.45763330	     11.92668428	      0.20815991	      6.31330527	      0.15858756	     -7.49999987	     -5.49993411	      1.23340175	      4.05850275	     12.12967044	      0.21170269	     15.08446850	     -8.22062950	     -7.49999987	    -18.90234116	      3.14972661	     -2.63993591	     -0.95661410	    -19.32340812	    -10.74099473	     20.01933174	     75.37926709	     15.96767457	    -17.02487654	      4.35804369	     41.83853158	     85.30173678
     15.15000000	     -1.99087282	     -0.88022704	     -1.25622880	      0.99035473	      0.90552542	      0.72477500	     30.21910076	     -1.50184403	      4.75364430	      8.80469290	      0.15367088	      8.01903769	      1.78247130	     -7.49999987	     -6.38262127	      0.75733593	      4.18133803	     12.53540093	      0.21878402	     17.10781657	     -7.81464465	     -7.49999987	    -17.82218880	      3.64075424	     -3.67669739	     -1.38171367	    -19.37489835	    -10.67049126	     19.99757206	     75.60670170	     15.67725619	    -17.06189089	      4.44963042	     41.19607761	     84.34229514
     15.16666670	     -2.28054206	     -1.41536570	     -1.03598244	      0.99374898	      0.90368834	      0.73053040	     30.62715297	     -1.05742278	      5.29973433	      7.01369803	      0.12241212	      8.97989297	      2.24730692	     -7.49999987	     -7.46438573	     -0.05060471	      4.19210363	     13.06906069	      0.22809814	     18.87510250	     -7.76615673	     -7.49999987	    -16.77057243	      4.32141186	     -4.34114643	     -1.92830650	    -19.40428435	    -10.61966130	     20.24046880	     75.89620299	     15.03797600	    -17.02273782	      4.44773916	     40.56611040	     84.28153158
     15.18333330	     -2.49082251	     -2.16878663	     -0.92359593	      0.99782343	      0.90416904	      0.73547661	     30.69992493	     -0.16497463	      5.37398382	      6.67575270	      0.11651386	      9.23016447	      2.29132171	     -7.49999987	     -8.69384709	     -1.18684729	      3.57922085	     13.81246793	      0.24107304	     20.56696297	     -6.90935186	     -7.49999987	    -15.67462109	      5.17429724	     -4.91199895	     -2.37128480	    -19.41862279	    -10.18850486	     20.42861958	     76.58791019	     14.19482111	    -16.71263730	      3.90338840	     39.09161924	     83.94404523
     15.20000000	     -2.55635531	     -2.97294191	     -0.88739707	      0.99983147	      0.90468630	      0.73817667	     30.40057182	      0.97188245	      5.24969702	      7.45338270	      0.13008607	      8.41943616	      1.87004579	     -7.49999987	    -10.02323348	     -2.34601855	      2.90505009	     14.82889357	      0.25881302	     21.28845594	     -6.20655954	     -7.49999987	    -14.71485319	      6.10398483	     -5.78766194	     -2.05200095	    -19.47920947	     -8.78265321	     19.92428412	     80.43343217	     12.72965529	    -16.31114250	      2.46707318	     37.96689383	     82.18277666
     15.21666670	     -2.69598653	     -3.69586278	     -0.82969244	      1.00086282	      0.90124949	      0.74000156	     30.09050559	      2.08966077	      4.82978328	      8.95507445	      0.15629553	      6.97026245	      1.67781115	     -7.49999987	    -10.96623264	     -3.38525361	      2.33010400	     16.50131487	      0.28800228	     20.93734330	     -6.04864085	     -7.49999987	    -13.85939151	      6.93234461	     -6.02536513	     -2.42806918	    -19.33710557	     -8.64420781	     20.47789702	     80.09937486	     11.56108649	    -15.89612585	      2.39256303	     37.10549964	     81.68561468
     15.23333330	     -2.67958041	     -4.29497296	     -0.71873841	      1.00215424	      0.89514802	      0.74236809	     29.61334341	      3.12029607	      4.72085840	     10.80314829	      0.18855051	      5.23934557	      0.96101852	     -7.49999987	    -11.57509380	     -4.40501596	      1.35940031	     19.04559314	      0.33240831	     20.09114692	     -5.02844237	     -7.49999987	    -13.12154721	      7.60768116	     -6.24048561	     -2.32142058	    -19.27012691	     -7.52238274	     20.06169420	     80.15233475	     11.07590082	    -15.08221429	      1.74734974	     34.47346135	     80.98490528
